<svg width="107" height="26" viewBox="0 0 107 26" fill="none" xmlns="http://www.w3.org/2000/svg">
<path fill-rule="evenodd" clip-rule="evenodd" d="M78.6375 19.7657H80.4086C80.6211 19.7657 80.7628 19.624 80.7628 19.4114V0.354223C80.7628 0.141689 80.6211 0 80.4086 0H78.6375C78.4249 0 78.2832 0.141689 78.2832 0.354223V19.4114C78.2832 19.624 78.4249 19.7657 78.6375 19.7657ZM74.6702 2.90468C74.6702 3.32974 74.5285 3.75481 74.1743 4.03819C73.8909 4.32157 73.4658 4.46326 73.0408 4.46326C72.6157 4.46326 72.1906 4.32157 71.9072 3.96734C71.6239 3.68397 71.4113 3.2589 71.4113 2.83383C71.4113 2.40876 71.553 1.98369 71.9072 1.70032C72.1906 1.41694 72.6157 1.2044 73.0408 1.27525C73.4658 1.27525 73.8909 1.41694 74.1743 1.70032C74.5285 2.05454 74.6702 2.47961 74.6702 2.90468ZM73.9617 19.7657H72.1906C71.9781 19.7657 71.8364 19.624 71.8364 19.4115V7.72211C71.8364 7.50958 71.9781 7.36789 72.1906 7.36789H73.9617C74.1743 7.36789 74.316 7.50958 74.316 7.72211V19.4115C74.316 19.624 74.1743 19.7657 73.9617 19.7657ZM13.8855 4.74658H4.46321C1.98365 4.74658 0 6.73023 0 9.13894V17.9945C0 20.4741 1.98365 22.4577 4.46321 22.4577H13.8855C16.3651 22.4577 18.3487 20.4741 18.3487 17.9945V9.20979C18.3487 6.73023 16.3651 4.74658 13.8855 4.74658ZM3.89647 17.4278C3.82563 18.1363 4.10901 18.8447 4.53407 19.3406C5.10083 19.8365 5.73843 20.1199 6.51772 19.8365C7.58039 19.8365 8.50137 19.4823 9.20982 18.703C10.06 17.7112 10.7684 16.5777 11.1226 15.3025C11.0872 15.6921 11.0518 16.064 11.0164 16.436L11.0163 16.4361C10.9809 16.808 10.9455 17.1799 10.9101 17.5695C10.8392 18.2071 11.1226 18.8447 11.5477 19.2698C12.0436 19.6948 12.752 19.9782 13.4605 19.9074C14.0272 19.9074 14.594 19.7657 15.0899 19.4823C15.6567 19.1281 16.2234 18.6322 16.6485 18.0654C16.861 17.8529 16.9319 17.4987 16.9319 17.1444C16.9319 17.0027 16.861 16.7902 16.7902 16.6485C16.7902 16.5068 16.6485 16.436 16.5068 16.436C16.3651 16.436 16.1526 16.5068 16.0817 16.6485C15.7275 17.0736 15.3733 17.4278 14.9482 17.782C14.6649 17.9946 14.3106 18.1363 13.9564 18.1363C13.673 18.1363 13.3896 17.9946 13.1771 17.782C12.9646 17.5695 12.8937 17.2153 12.8937 16.8611C12.9292 16.6485 12.9469 16.436 12.9646 16.2235C12.9823 16.0109 13 15.7984 13.0354 15.5859C13.1771 14.3107 13.3896 12.8938 13.673 11.3352C13.7623 10.8442 13.8235 10.4094 13.8742 10.0486C13.904 9.83678 13.9302 9.65045 13.9564 9.49322C13.9564 9.3161 13.9741 9.13899 13.9918 8.96188C14.0095 8.78477 14.0272 8.60766 14.0272 8.43055C14.0272 8.00548 13.9564 7.65126 13.7439 7.36788C13.5313 7.15534 13.248 7.0845 12.9646 7.0845C12.6812 7.0845 12.3978 7.22619 12.1853 7.43872C12.0436 7.7221 11.9019 8.14717 11.9019 8.50139C11.6894 10.4142 11.3352 12.2562 10.6976 14.0273C10.3433 15.1608 9.77657 16.2235 8.99728 17.1444C8.57222 17.7112 7.86377 18.0654 7.15532 18.1363C6.87195 18.1363 6.58857 18.0654 6.37603 17.8529C6.1635 17.6404 6.09266 17.357 6.09266 17.0736C6.09266 16.9673 6.11037 16.8611 6.12808 16.7548C6.14579 16.6485 6.1635 16.5423 6.1635 16.436C6.19892 16.3297 6.21663 16.2235 6.23434 16.1172C6.25206 16.0109 6.26977 15.9047 6.30519 15.7984L6.37603 15.3025L6.94279 12.4687C7.0172 12.0594 7.09162 11.7088 7.15577 11.4065C7.21377 11.1332 7.26338 10.8994 7.29701 10.6976C7.36786 10.2017 7.36786 9.7766 7.36786 9.2807V9.28068C7.4387 8.71393 7.22617 8.14717 6.87195 7.65126C6.51772 7.29703 5.95097 7.0845 5.45505 7.0845C3.96732 7.15534 2.62127 7.93464 1.84198 9.20984C1.5586 9.49322 1.41691 9.91828 1.41691 10.2725C1.41691 10.4142 1.48776 10.5559 1.5586 10.6267C1.62945 10.7684 1.77114 10.8393 1.91283 10.8393C2.12536 10.8393 2.33789 10.6976 2.40874 10.5559C2.76296 10.06 3.18803 9.63491 3.68394 9.28068C3.96732 9.06815 4.32154 8.85561 4.74661 8.85561C4.95914 8.85561 5.10083 8.92646 5.17168 9.06815C5.18645 9.11246 5.20122 9.1537 5.21535 9.19314L5.21538 9.19323L5.21539 9.19325C5.26901 9.34291 5.31336 9.46673 5.31336 9.63491C5.31336 10.06 5.24252 10.485 5.17168 10.8393C5.13625 11.0164 5.10083 11.1581 5.07427 11.2643C5.0477 11.3706 5.02999 11.4414 5.02999 11.4769L4.10901 15.7984C3.96732 16.3651 3.89647 16.8611 3.89647 17.4278ZM27.6294 10.2725C27.4877 10.4142 27.2752 10.3433 27.1335 10.2016C26.8501 9.84742 26.5667 9.56404 26.2125 9.42236C25.7166 9.13898 25.079 8.99729 24.5122 8.99729C24.2289 8.99729 23.9455 8.99729 23.6621 9.06813C23.3787 9.13898 23.1662 9.20982 22.9537 9.35151C22.7411 9.4932 22.5994 9.63489 22.4577 9.84742C22.3161 10.06 22.2452 10.2725 22.2452 10.5559C22.2452 11.0518 22.5286 11.4768 22.9537 11.6894C23.6621 12.0436 24.3706 12.2561 25.079 12.3978C25.6458 12.5395 26.2125 12.6812 26.7084 12.8937C27.2043 13.0354 27.6294 13.3188 28.0545 13.6022C28.4087 13.8856 28.6921 14.2398 28.9046 14.6649C29.1171 15.0899 29.2588 15.5858 29.188 16.0818C29.188 16.7194 29.0463 17.357 28.7629 17.9237C28.4795 18.4196 28.0545 18.8447 27.5586 19.1989C27.0626 19.5531 26.5667 19.7657 26 19.9074C25.4332 20.0491 24.7956 20.1199 24.158 20.1199C23.237 20.1199 22.2452 19.9074 21.3951 19.5531C20.6158 19.2698 19.9073 18.7738 19.4114 18.1362C19.2697 17.9946 19.2697 17.782 19.4114 17.6403L20.6158 16.5777C20.7575 16.436 20.97 16.5068 21.1117 16.6485C21.4659 17.0027 21.8201 17.357 22.2452 17.5695C22.812 17.9237 23.5204 18.0654 24.158 18.0654C24.4414 18.0654 24.7956 18.0654 25.079 17.9946C25.3624 17.9237 25.6458 17.8529 25.8583 17.7112C26.0708 17.5695 26.2834 17.357 26.425 17.1444C26.5667 16.861 26.6376 16.5777 26.6376 16.2943C26.6376 15.7275 26.3542 15.2316 25.8583 15.0191C25.079 14.6649 24.2997 14.3815 23.4496 14.2398C23.0245 14.1689 22.5994 14.0273 22.1744 13.8856C21.7493 13.7439 21.3951 13.5313 21.0409 13.248C20.6866 12.9646 20.4033 12.6812 20.1907 12.2561C19.9782 11.8311 19.8365 11.3352 19.8365 10.8392C19.8365 10.2725 19.9782 9.63489 20.2616 9.13898C20.5449 8.64306 20.8992 8.28884 21.3242 7.93462C21.7493 7.5804 22.3161 7.36786 22.812 7.22617C23.3787 7.08448 23.9455 7.01364 24.5122 7.01364C25.3624 7.01364 26.2834 7.15533 27.0626 7.50955C27.7002 7.79293 28.3378 8.218 28.7629 8.78475C28.9046 8.92644 28.8338 9.13898 28.6921 9.28067L27.6294 10.2725ZM43.4986 13.9564V13.4605C43.4986 12.5395 43.4277 11.6894 43.286 10.8392C43.0026 10.06 42.6484 9.35151 42.0817 8.78475C41.5149 8.218 40.8773 7.79293 40.1688 7.50955C38.5394 6.87195 36.7683 6.87195 35.1389 7.50955C34.3596 7.79293 33.6512 8.28884 33.0844 8.8556C32.5176 9.42235 32.0217 10.1308 31.7383 10.9101C31.3841 11.7602 31.2424 12.6104 31.2424 13.5313C31.2424 14.4523 31.3841 15.3733 31.7383 16.2234C32.3051 17.782 33.5803 19.0572 35.1389 19.624C36.9808 20.3324 38.9645 20.2616 40.7356 19.4823C41.5857 19.0572 42.2942 18.4905 42.8609 17.782C42.9318 17.6403 42.9318 17.4278 42.7901 17.2861L41.5857 16.3651C41.4441 16.2943 41.2315 16.2943 41.0898 16.436C40.8065 16.861 40.3814 17.2153 39.8855 17.4986C39.177 17.9237 38.4686 18.0654 37.6893 18.0654C36.6266 18.0654 35.6348 17.7112 34.8555 17.0027C34.5013 16.6485 34.2179 16.2234 34.0054 15.7984C33.7928 15.4442 33.722 15.0899 33.6512 14.7357H33.6511V14.6649C33.6511 14.4523 33.7928 14.3106 34.0054 14.3106H43.1443C43.3569 14.3106 43.4986 14.1689 43.4986 13.9564ZM40.9481 12.1145C40.9481 12.327 40.8065 12.4687 40.5939 12.4687H34.0054H33.9345C33.722 12.3978 33.6511 12.2561 33.6511 12.0436C33.722 11.6894 33.8637 11.3352 34.0054 11.0518C34.2179 10.6267 34.5013 10.2016 34.8555 9.91827C35.2097 9.56404 35.6348 9.28067 36.0599 9.13898C36.5558 8.92644 37.0517 8.8556 37.5476 8.8556C38.0435 8.8556 38.5394 8.99729 39.0353 9.13898C39.8146 9.4932 40.4522 10.2016 40.7356 11.0518C40.771 11.2289 40.8064 11.3883 40.8419 11.5477C40.8773 11.7071 40.9127 11.8665 40.9481 12.0436V12.1145ZM46.474 8.78472C46.474 8.4305 46.474 8.07627 46.4032 7.7929C46.4032 7.58036 46.5449 7.43867 46.7574 7.43867H48.3868C48.5994 7.43867 48.7411 7.58036 48.7411 7.72205C48.7411 7.82068 48.7563 7.93456 48.7727 8.05662V8.05666C48.7916 8.19762 48.8119 8.34948 48.8119 8.50134V9.49317H48.8828C49.237 8.78472 49.7329 8.14712 50.4413 7.72205C51.0789 7.29698 51.9291 7.01361 52.7084 7.08445C52.9209 7.08445 53.1334 7.08445 53.346 7.15529C53.4877 7.15529 53.6293 7.29698 53.6293 7.50952L53.5585 9.0681C53.5585 9.28063 53.4168 9.42232 53.2043 9.42232C52.9917 9.35148 52.7084 9.35148 52.4958 9.35148C51.9999 9.35148 51.4332 9.42232 50.9372 9.7057C50.5122 9.91823 50.158 10.2016 49.8746 10.5558C49.5912 10.9101 49.3787 11.3351 49.237 11.831C49.0953 12.327 49.0244 12.8229 49.0244 13.3188V19.4823C49.0244 19.6948 48.8828 19.8365 48.6702 19.8365H46.8991C46.6866 19.8365 46.5449 19.6948 46.5449 19.4823V10.0599C46.5449 9.7057 46.5449 9.28063 46.474 8.78472ZM55.9672 26H57.7383C57.9509 26 58.0926 25.8583 58.0926 25.6458V17.8529H58.1634C58.5885 18.5613 59.2261 19.1281 60.0054 19.4823C60.7847 19.8365 61.6348 20.0491 62.4849 20.0491C63.4059 20.0491 64.256 19.9074 65.1062 19.5531C65.8855 19.1989 66.5231 18.7738 67.0898 18.1362C67.6566 17.4986 68.0816 16.7902 68.365 16.0109C68.6484 15.2316 68.7901 14.3106 68.7901 13.4605C68.7901 12.6104 68.6484 11.7602 68.365 10.9809C68.0816 10.2725 67.6566 9.56405 67.0898 8.92644C66.5231 8.35969 65.8146 7.86377 65.1062 7.50955C64.256 7.15533 63.4059 7.01364 62.5558 7.01364C61.6348 7.01364 60.7138 7.22617 59.8637 7.65124C59.1552 8.00546 58.5176 8.57222 58.0926 9.28067H58.0217V7.72208C58.0217 7.50955 57.88 7.36786 57.6675 7.36786H55.9672C55.7547 7.36786 55.613 7.50955 55.613 7.72208V25.6458C55.613 25.8583 55.7547 26 55.9672 26ZM65.9563 11.8311C66.1688 12.3978 66.2397 12.9646 66.2397 13.5313C66.2397 14.0981 66.1688 14.6649 65.9563 15.2316C65.8146 15.7275 65.5312 16.2234 65.177 16.6485C64.8228 17.0736 64.3977 17.4278 63.9018 17.6403C63.3351 17.8529 62.7683 17.9946 62.1307 17.9946C61.5639 17.9946 60.9972 17.8529 60.4304 17.6403C59.9345 17.4278 59.4386 17.0736 59.0844 16.6485C58.7302 16.2234 58.4468 15.7275 58.2342 15.2316C57.8092 14.0981 57.8092 12.8937 58.2342 11.8311C58.4468 11.3352 58.7302 10.8392 59.0844 10.4142C59.5094 9.98911 59.9345 9.63489 60.4304 9.42236C60.9263 9.20982 61.5639 9.06813 62.1307 9.06813C62.6974 9.06813 63.3351 9.13898 63.9018 9.42236C64.3977 9.63489 64.8228 9.98911 65.177 10.4142C65.5312 10.8392 65.8146 11.3352 65.9563 11.8311ZM97.1988 13.5313C97.1988 14.4523 97.0571 15.3025 96.7029 16.1526C96.3487 16.9319 95.9236 17.6403 95.286 18.2071C94.6484 18.7738 93.9399 19.2698 93.1607 19.5531C91.4604 20.1907 89.5476 20.1907 87.9182 19.5531C86.2887 18.9864 85.0135 17.7112 84.3759 16.0818C84.0217 15.2316 83.88 14.3815 83.88 13.4605C83.88 12.5395 84.0217 11.6894 84.3759 10.8392C84.7301 10.06 85.1552 9.35151 85.7928 8.78475C86.4304 8.218 87.1389 7.72209 87.9182 7.43871C89.6184 6.80111 91.4604 6.80111 93.1607 7.43871C93.9399 7.72209 94.6484 8.218 95.286 8.78475C95.9236 9.35151 96.3487 10.06 96.7029 10.8392C96.9863 11.7602 97.1988 12.6104 97.1988 13.5313ZM94.6484 13.5313C94.6484 12.9646 94.5776 12.3978 94.365 11.8311C94.2233 11.3352 93.9399 10.8392 93.5857 10.4142C93.2315 9.98911 92.8064 9.63489 92.3105 9.42236C91.177 8.92644 89.9018 8.92644 88.7683 9.42236C88.2724 9.63489 87.8473 9.98911 87.4931 10.4142C87.1389 10.8392 86.8555 11.3352 86.7138 11.8311C86.3596 12.9646 86.3596 14.0981 86.7138 15.2316V15.2317C86.9264 15.7276 87.1389 16.2235 87.4931 16.6485C87.8473 17.0736 88.2724 17.4278 88.7683 17.6403C89.9018 18.1362 91.177 18.1362 92.3105 17.6403C92.8064 17.4278 93.2315 17.0736 93.5857 16.6485C93.9399 16.2234 94.2233 15.7275 94.365 15.2316V15.2315C94.5067 14.6648 94.6484 14.0981 94.6484 13.5313ZM103.291 9.3515H105.913C106.125 9.3515 106.267 9.20981 106.338 8.92643V7.58038C106.338 7.36785 106.196 7.22616 105.983 7.22616H103.362C103.15 7.22616 103.008 7.08447 103.008 6.87194V4.03815C103.008 3.82562 102.866 3.68393 102.654 3.68393H100.883C100.67 3.68393 100.528 3.82562 100.528 4.03815V6.87194C100.528 7.08447 100.387 7.22616 100.174 7.22616H98.474C98.2614 7.22616 98.1197 7.36785 98.1197 7.58038V8.92643C98.1197 9.13896 98.2614 9.28065 98.474 9.28065H100.174C100.387 9.28065 100.528 9.42234 100.528 9.63488V16.0109C100.458 17.0736 100.741 18.1362 101.449 18.9155C102.158 19.624 103.15 19.9782 104.142 19.9074C104.567 19.9074 104.921 19.9073 105.275 19.8365C105.488 19.8365 105.771 19.7657 105.983 19.6948C106.125 19.624 106.196 19.4823 106.196 19.3406L106.125 18.0654V17.9945C106.054 17.8529 105.913 17.7112 105.7 17.782L105.417 17.8529C105.204 17.9237 104.921 17.9237 104.708 17.9237C104.212 17.9237 103.716 17.782 103.362 17.4278C103.008 16.9319 102.866 16.3651 102.937 15.7984V9.70572C102.937 9.49319 103.079 9.3515 103.291 9.3515Z" fill="#655B6E"/>
</svg>
